<?xml version="1.0" encoding="UTF-8"?>
<svg version="1.1" viewBox="0 0 1080 1080" width="1080" height="1080" xmlns="http://www.w3.org/2000/svg">
<path transform="translate(59,108)" d="m0 0h477l157 1 33 1 6 1 18 1 19 3 21 3 26 6 25 7 28 11 16 8 16 9 12 9 11 9 10 9 8 8 13 17 9 14 8 16 5 11 8 24 3 16 1 2 2 12 2 16 1 28v15l-1 26-2 16-1 2-1 9-5 18-4 13-5 13-10 19-7 11-16 22h-2l-2 4-18 18-10 8-12 9-15 10-11 6-15 8-22 10-19 7 1 5 12 20 9 14v3h2l5 9 9 15 16 26 7 11 5 9 3 4v3h2l5 9 1 4h2l6 11 16 26 9 15 8 13 11 18 13 21 12 20 9 14v3h2l5 9 17 28 9 14 5 9 22 36 10 17 4 7-1 4-41 1h-69l-5-3-8-12-6-11-14-24-10-17-7-11-6-11-17-29-14-24-20-34-15-26-15-25-42-72-12-20-8-13v-3h-2l-6-11-12-21-2-2-23-1h-161v368l-3 2h-104l-4-1-1-3v-362l-3-3h-363l-2-2v-85l2-1 365-1 1-1v-323l-1-14-367-1-2-2v-83zm481 87-3 1v340l1 1h168l24-2 24-4 17-4 13-4 7-3 8-3 16-8 14-9 11-9 7-6 6-7 10-13 9-16 6-14 6-19 2-9 2-13 1-20v-23l-1-21-2-13-3-10-1-7-3-7-5-13-9-16-9-12-11-11-4-3h-2v-2l-19-12-20-9-17-6-22-5-13-3-11-1-3-1-18-2-44-2z" fill="#310062"/>
</svg>
